<svg width="44" height="44" viewBox="0 0 44 44" fill="none" xmlns="http://www.w3.org/2000/svg">
<circle cx="22" cy="22" r="21.5" fill="white" stroke="#56556E"/>
<path d="M27 22.5C26.9967 22.7301 26.9022 22.9507 26.7352 23.1186L17.5243 31.8005C17.3453 31.9389 17.1181 32.0096 16.8869 31.9989C16.6556 31.9882 16.4369 31.8968 16.2732 31.7425C16.1094 31.5882 16.0125 31.382 16.0011 31.1641C15.9898 30.9461 16.0648 30.732 16.2117 30.5633L24.7779 22.5L16.2117 14.4367C16.0648 14.268 15.9898 14.0539 16.0011 13.8359C16.0125 13.618 16.1094 13.4118 16.2732 13.2575C16.4369 13.1032 16.6556 13.0118 16.8869 13.0011C17.1181 12.9904 17.3453 13.0611 17.5243 13.1996L26.7352 21.8814C26.9022 22.0493 26.9967 22.2699 27 22.5Z" fill="#56556E"/>
</svg>
