<svg width="44" height="44" viewBox="0 0 44 44" fill="none" xmlns="http://www.w3.org/2000/svg">
<circle cx="22" cy="22" r="21.5" fill="#F9F9F9" stroke="#D9D9D9"/>
<path d="M15 22.5C15.0033 22.7301 15.0978 22.9507 15.2648 23.1186L24.4757 31.8005C24.6547 31.9389 24.8819 32.0096 25.1131 31.9989C25.3444 31.9882 25.5631 31.8968 25.7268 31.7425C25.8906 31.5882 25.9875 31.382 25.9989 31.1641C26.0102 30.9461 25.9352 30.732 25.7883 30.5633L17.2221 22.5L25.7883 14.4367C25.9352 14.268 26.0102 14.0539 25.9989 13.8359C25.9875 13.618 25.8906 13.4118 25.7268 13.2575C25.5631 13.1032 25.3444 13.0118 25.1131 13.0011C24.8819 12.9904 24.6547 13.0611 24.4757 13.1996L15.2648 21.8814C15.0978 22.0493 15.0033 22.2699 15 22.5Z" fill="#D9D9D9"/>
</svg>
