<svg width="17" height="12" viewBox="0 0 17 12" fill="none" xmlns="http://www.w3.org/2000/svg">
<path d="M10.0125 11.275C9.81252 11.075 9.71652 10.8333 9.72452 10.55C9.73319 10.2667 9.83752 10.025 10.0375 9.82499L12.8625 6.99999H1.71252C1.42919 6.99999 1.19152 6.90399 0.999525 6.71199C0.808191 6.52065 0.712524 6.28332 0.712524 5.99999C0.712524 5.71665 0.808191 5.47899 0.999525 5.28699C1.19152 5.09565 1.42919 4.99999 1.71252 4.99999H12.8625L10.0125 2.14999C9.81252 1.94999 9.71252 1.71232 9.71252 1.43699C9.71252 1.16232 9.81252 0.924987 10.0125 0.724988C10.2125 0.524988 10.4502 0.424988 10.7255 0.424988C11.0002 0.424988 11.2375 0.524988 11.4375 0.724988L16.0125 5.29999C16.1125 5.39999 16.1835 5.50832 16.2255 5.62499C16.2669 5.74165 16.2875 5.86665 16.2875 5.99999C16.2875 6.13332 16.2669 6.25832 16.2255 6.37499C16.1835 6.49165 16.1125 6.59999 16.0125 6.69999L11.4125 11.3C11.2292 11.4833 11.0002 11.575 10.7255 11.575C10.4502 11.575 10.2125 11.475 10.0125 11.275Z" fill="white"/>
</svg>
