<svg width="32" height="32" viewBox="0 0 32 32" fill="none" xmlns="http://www.w3.org/2000/svg">
<path d="M16 0C12.8355 0 9.74207 0.938383 7.11088 2.69649C4.4797 4.45459 2.42894 6.95345 1.21793 9.87706C0.00693228 12.8007 -0.309921 16.0177 0.307443 19.1214C0.924806 22.2251 2.44866 25.0761 4.6863 27.3137C6.92394 29.5513 9.77486 31.0752 12.8786 31.6926C15.9823 32.3099 19.1993 31.9931 22.1229 30.7821C25.0466 29.5711 27.5454 27.5203 29.3035 24.8891C31.0616 22.2579 32 19.1645 32 16C31.9917 11.7591 30.3033 7.69423 27.3046 4.69545C24.3058 1.69666 20.2409 0.00829116 16 0ZM16 30.1176C13.2078 30.1176 10.4783 29.2897 8.15666 27.7384C5.83503 26.1871 4.02553 23.9822 2.957 21.4026C1.88847 18.8229 1.60889 15.9843 2.15363 13.2458C2.69836 10.5072 4.04293 7.9917 6.01732 6.01731C7.99171 4.04293 10.5072 2.69835 13.2458 2.15362C15.9843 1.60889 18.8229 1.88846 21.4026 2.95699C23.9823 4.02553 26.1871 5.83502 27.7384 8.15665C29.2897 10.4783 30.1176 13.2078 30.1176 16C30.1135 19.743 28.6248 23.3314 25.9781 25.9781C23.3314 28.6248 19.743 30.1135 16 30.1176ZM21.0196 15.2941C21.1176 15.3838 21.1958 15.4928 21.2493 15.6143C21.3028 15.7359 21.3305 15.8672 21.3305 16C21.3305 16.1328 21.3028 16.2641 21.2493 16.3856C21.1958 16.5072 21.1176 16.6162 21.0196 16.7059L14.7451 22.3529C14.5719 22.5057 14.3486 22.5894 14.1177 22.5882C13.9848 22.5869 13.8536 22.5584 13.7322 22.5045C13.6108 22.4505 13.5018 22.3722 13.4118 22.2745C13.329 22.182 13.2653 22.074 13.2244 21.9568C13.1835 21.8396 13.1662 21.7154 13.1735 21.5915C13.1808 21.4676 13.2125 21.3463 13.2669 21.2347C13.3212 21.1231 13.3971 21.0233 13.4902 20.9412L18.9804 16L13.4902 11.0588C13.303 10.8924 13.1896 10.6584 13.1748 10.4084C13.1601 10.1583 13.2454 9.9127 13.4118 9.72549C13.5782 9.53828 13.8121 9.42484 14.0622 9.41013C14.3122 9.39542 14.5579 9.48065 14.7451 9.64706L21.0196 15.2941Z" fill="white"/>
</svg>
