<svg width="130" height="43" viewBox="0 0 130 43" fill="none" xmlns="http://www.w3.org/2000/svg">
<path fill-rule="evenodd" clip-rule="evenodd" d="M42.7601 9.88861C42.7601 11.9879 42.3622 13.7739 41.5664 15.2465C40.7768 16.7191 39.6989 17.844 38.3328 18.621C36.973 19.3918 35.4439 19.7772 33.7457 19.7772C32.0349 19.7772 30.4996 19.3887 29.1398 18.6116C27.7799 17.8346 26.7052 16.7097 25.9156 15.2371C25.126 13.7645 24.7312 11.9816 24.7312 9.88861C24.7312 7.78932 25.126 6.00335 25.9156 4.53071C26.7052 3.05807 27.7799 1.93636 29.1398 1.16558C30.4996 0.388526 32.0349 0 33.7457 0C35.4439 0 36.973 0.388526 38.3328 1.16558C39.6989 1.93636 40.7768 3.05807 41.5664 4.53071C42.3622 6.00335 42.7601 7.78932 42.7601 9.88861ZM38.6336 9.88861C38.6336 8.52877 38.4299 7.38199 38.0226 6.44828C37.6216 5.51456 37.0544 4.80644 36.3212 4.32392C35.5881 3.84139 34.7295 3.60013 33.7457 3.60013C32.7618 3.60013 31.9033 3.84139 31.1701 4.32392C30.437 4.80644 29.8667 5.51456 29.4594 6.44828C29.0583 7.38199 28.8578 8.52877 28.8578 9.88861C28.8578 11.2485 29.0583 12.3952 29.4594 13.3289C29.8667 14.2627 30.437 14.9708 31.1701 15.4533C31.9033 15.9358 32.7618 16.1771 33.7457 16.1771C34.7295 16.1771 35.5881 15.9358 36.3212 15.4533C37.0544 14.9708 37.6216 14.2627 38.0226 13.3289C38.4299 12.3952 38.6336 11.2485 38.6336 9.88861ZM0.874469 19.514V0.263195H4.9446V16.1583H13.1977V19.514H0.874469ZM55.7014 0.263195V19.514H59.7715V12.6898H62.7425L66.389 19.514H70.8821L66.7976 12.0352C66.8563 12.0097 66.9144 11.9835 66.9718 11.9566C68.0183 11.4678 68.8173 10.7659 69.3687 9.85101C69.9202 8.92983 70.1959 7.83005 70.1959 6.55168C70.1959 5.27957 69.9233 4.17352 69.3781 3.23354C68.8392 2.28729 68.0527 1.55724 67.0188 1.04338C65.991 0.523257 64.7503 0.263195 63.2964 0.263195H55.7014ZM59.7715 9.41862H62.535C63.3121 9.41862 63.9575 9.31209 64.4714 9.09903C64.9853 8.88596 65.3675 8.56637 65.6182 8.14025C65.8751 7.71412 66.0036 7.1846 66.0036 6.55168C66.0036 5.91249 65.8751 5.37356 65.6182 4.93491C65.3675 4.49625 64.9821 4.16412 64.462 3.93852C63.9481 3.70666 63.2996 3.59073 62.5162 3.59073H59.7715V9.41862ZM82.9985 19.514V0.263195H95.9702V3.61893H87.0686V8.20604H95.3029V11.5618H87.0686V16.1583H96.0078V19.514H82.9985ZM114.152 0.263195H109.132V19.514H113.08V6.93707H113.24L118.222 19.42H120.91L125.892 6.98407H126.052V19.514H130V0.263195H124.98L119.679 13.1973H119.453L114.152 0.263195ZM0.0829779 31.8113V39.7772H2.29226V31.8113H0.0829779ZM0.34747 30.4578C0.582574 30.6756 0.864353 30.7845 1.19281 30.7845C1.52126 30.7845 1.80131 30.6756 2.03296 30.4578C2.26806 30.2365 2.38561 29.972 2.38561 29.6643C2.38561 29.36 2.26806 29.099 2.03296 28.8812C1.80131 28.6599 1.52126 28.5493 1.19281 28.5493C0.864353 28.5493 0.582574 28.6599 0.34747 28.8812C0.115823 29.099 0 29.36 0 29.6643C0 29.972 0.115823 30.2365 0.34747 30.4578ZM4.06202 31.8113V42.7644H6.27131V38.5014H6.33873C6.43899 38.7227 6.58421 38.9422 6.77436 39.16C6.96452 39.3744 7.20827 39.5525 7.50561 39.6942C7.8064 39.836 8.17116 39.9068 8.59988 39.9068C9.20492 39.9068 9.75119 39.7513 10.2387 39.4401C10.7296 39.1255 11.1169 38.6639 11.4004 38.0554C11.6873 37.4434 11.8308 36.6932 11.8308 35.8046C11.8308 34.8919 11.6839 34.133 11.39 33.5279C11.0961 32.9194 10.7037 32.4648 10.2128 32.164C9.72181 31.8597 9.18591 31.7076 8.60506 31.7076C8.15906 31.7076 7.78566 31.7837 7.48486 31.9358C7.18752 32.0845 6.94551 32.2712 6.75881 32.4959C6.57556 32.7172 6.43554 32.935 6.33873 33.1493H6.24019V31.8113H4.06202ZM6.42171 37.0337C6.29033 36.6811 6.22464 36.2679 6.22464 35.7943C6.22464 35.3206 6.29033 34.9092 6.42171 34.56C6.55309 34.2108 6.74152 33.9411 6.98699 33.7509C7.23593 33.5608 7.54018 33.4657 7.89975 33.4657C8.26278 33.4657 8.56876 33.5642 8.81769 33.7613C9.06663 33.9584 9.25506 34.2315 9.38298 34.5807C9.5109 34.9299 9.57487 35.3344 9.57487 35.7943C9.57487 36.2576 9.50918 36.6673 9.37779 37.0234C9.24987 37.376 9.06144 37.6526 8.81251 37.8531C8.56357 38.0502 8.25932 38.1488 7.89975 38.1488C7.54364 38.1488 7.24111 38.052 6.99218 37.8583C6.74325 37.6613 6.55309 37.3864 6.42171 37.0337ZM19.9315 34.0829L17.909 34.2073C17.8744 34.0344 17.8 33.8789 17.6859 33.7406C17.5719 33.5988 17.4215 33.4864 17.2348 33.4035C17.0515 33.317 16.832 33.2738 16.5761 33.2738C16.2338 33.2738 15.9451 33.3464 15.71 33.4916C15.4749 33.6334 15.3574 33.8235 15.3574 34.0621C15.3574 34.2523 15.4334 34.413 15.5856 34.5444C15.7377 34.6758 15.9987 34.7812 16.3687 34.8608L17.8104 35.1512C18.5849 35.3102 19.1623 35.5661 19.5426 35.9187C19.9229 36.2714 20.1131 36.7347 20.1131 37.3086C20.1131 37.8307 19.9592 38.2888 19.6515 38.6829C19.3472 39.0771 18.9289 39.3848 18.3964 39.6061C17.8675 39.8239 17.2572 39.9328 16.5657 39.9328C15.5112 39.9328 14.6711 39.7132 14.0453 39.2741C13.423 38.8316 13.0582 38.23 12.951 37.4694L15.124 37.3553C15.1897 37.6768 15.3487 37.9223 15.6011 38.0917C15.8535 38.2577 16.1768 38.3406 16.5709 38.3406C16.9582 38.3406 17.2693 38.2663 17.5044 38.1176C17.743 37.9655 17.864 37.7702 17.8675 37.5316C17.864 37.3311 17.7793 37.1669 17.6133 37.0389C17.4474 36.9075 17.1915 36.8073 16.8458 36.7381L15.4663 36.4633C14.6884 36.3077 14.1093 36.038 13.7289 35.6542C13.3521 35.2705 13.1637 34.7812 13.1637 34.1866C13.1637 33.6749 13.302 33.2341 13.5785 32.8641C13.8586 32.4942 14.251 32.2089 14.7558 32.0084C15.264 31.8079 15.8587 31.7076 16.5398 31.7076C17.5459 31.7076 18.3377 31.9202 18.9151 32.3455C19.4959 32.7708 19.8347 33.3499 19.9315 34.0829ZM26.6126 31.8113V36.3855C26.616 36.7416 26.5451 37.0407 26.3999 37.2827C26.2582 37.5247 26.0715 37.7079 25.8398 37.8324C25.6082 37.9534 25.3592 38.0139 25.093 38.0139C24.6747 38.0139 24.341 37.8774 24.0921 37.6042C23.8432 37.3311 23.717 36.9594 23.7135 36.4892V31.8113H21.5042V36.8833C21.5077 37.5057 21.6218 38.0398 21.8465 38.4859C22.0747 38.9319 22.3911 39.2759 22.7956 39.5179C23.2001 39.7599 23.6686 39.8809 24.201 39.8809C24.7991 39.8809 25.3056 39.7392 25.7205 39.4557C26.1389 39.1721 26.438 38.797 26.6177 38.3303H26.7007V39.7772H28.8218V31.8113H26.6126ZM30.589 31.8113H32.6946V33.2168H32.7879C32.9539 32.75 33.2305 32.3818 33.6177 32.1121C34.0049 31.8425 34.4682 31.7076 35.0076 31.7076C35.5538 31.7076 36.0189 31.8442 36.4026 32.1173C36.7864 32.387 37.0423 32.7535 37.1702 33.2168H37.2532C37.4157 32.7604 37.7095 32.3956 38.1348 32.1225C38.5635 31.8459 39.07 31.7076 39.6543 31.7076C40.3977 31.7076 41.001 31.9444 41.4643 32.4181C41.931 32.8883 42.1644 33.5556 42.1644 34.4199V39.7772H39.9603V34.8556C39.9603 34.413 39.8428 34.0811 39.6077 33.8598C39.3726 33.6386 39.0787 33.5279 38.726 33.5279C38.325 33.5279 38.0121 33.6559 37.7873 33.9117C37.5626 34.1641 37.4502 34.4977 37.4502 34.9126V39.7772H35.3084V34.8089C35.3084 34.4182 35.196 34.1071 34.9713 33.8754C34.75 33.6438 34.4579 33.5279 34.0948 33.5279C33.8493 33.5279 33.6281 33.5902 33.431 33.7146C33.2374 33.8356 33.0835 34.0068 32.9694 34.2281C32.8553 34.4459 32.7983 34.7017 32.7983 34.9956V39.7772H30.589V31.8113ZM48.5809 39.4401C49.0719 39.7513 49.6199 39.9068 50.2249 39.9068C50.6537 39.9068 51.0167 39.836 51.314 39.6942C51.6148 39.5525 51.8586 39.3744 52.0453 39.16C52.2354 38.9422 52.3824 38.7227 52.4861 38.5014H52.5794V39.7772H54.7576V29.156H52.5535V33.1493H52.4861C52.3893 32.935 52.2475 32.7172 52.0608 32.4959C51.8776 32.2712 51.6356 32.0845 51.3348 31.9358C51.0374 31.7837 50.6658 31.7076 50.2197 31.7076C49.6354 31.7076 49.0978 31.8597 48.6069 32.164C48.1194 32.4648 47.7287 32.9194 47.4348 33.5279C47.1409 34.133 46.994 34.8919 46.994 35.8046C46.994 36.6932 47.1357 37.4434 47.4192 38.0554C47.7062 38.6639 48.0934 39.1255 48.5809 39.4401ZM51.8274 37.8583C51.582 38.052 51.2812 38.1488 50.9251 38.1488C50.562 38.1488 50.2561 38.0502 50.0071 37.8531C49.7616 37.6526 49.5732 37.376 49.4418 37.0234C49.3139 36.6673 49.2499 36.2576 49.2499 35.7943C49.2499 35.3344 49.3139 34.9299 49.4418 34.5807C49.5698 34.2315 49.7582 33.9584 50.0071 33.7613C50.2561 33.5642 50.562 33.4657 50.9251 33.4657C51.2812 33.4657 51.5837 33.5608 51.8326 33.7509C52.0816 33.9411 52.2717 34.2108 52.4031 34.56C52.5345 34.9092 52.6002 35.3206 52.6002 35.7943C52.6002 36.2679 52.5328 36.6811 52.3979 37.0337C52.2665 37.3864 52.0764 37.6613 51.8274 37.8583ZM60.1732 39.9328C59.3676 39.9328 58.671 39.7616 58.0832 39.4194C57.4989 39.0736 57.0477 38.593 56.7296 37.9776C56.4115 37.3587 56.2525 36.6413 56.2525 35.8254C56.2525 35.0025 56.4115 34.2834 56.7296 33.668C57.0477 33.0491 57.4989 32.5685 58.0832 32.2262C58.671 31.8805 59.3676 31.7076 60.1732 31.7076C60.9788 31.7076 61.6737 31.8805 62.258 32.2262C62.8458 32.5685 63.2987 33.0491 63.6168 33.668C63.9349 34.2834 64.0939 35.0025 64.0939 35.8254C64.0939 36.6413 63.9349 37.3587 63.6168 37.9776C63.2987 38.593 62.8458 39.0736 62.258 39.4194C61.6737 39.7616 60.9788 39.9328 60.1732 39.9328ZM60.1836 38.2214C60.5501 38.2214 60.856 38.1176 61.1015 37.9102C61.347 37.6993 61.532 37.4123 61.6564 37.0493C61.7844 36.6863 61.8483 36.2731 61.8483 35.8098C61.8483 35.3465 61.7844 34.9334 61.6564 34.5703C61.532 34.2073 61.347 33.9204 61.1015 33.7094C60.856 33.4985 60.5501 33.3931 60.1836 33.3931C59.8136 33.3931 59.5025 33.4985 59.2501 33.7094C59.0011 33.9204 58.8127 34.2073 58.6848 34.5703C58.5603 34.9334 58.4981 35.3465 58.4981 35.8098C58.4981 36.2731 58.5603 36.6863 58.6848 37.0493C58.8127 37.4123 59.0011 37.6993 59.2501 37.9102C59.5025 38.1176 59.8136 38.2214 60.1836 38.2214ZM67.7397 39.7772V29.156H65.5305V39.7772H67.7397ZM73.1087 39.9328C72.3031 39.9328 71.6064 39.7616 71.0187 39.4194C70.4344 39.0736 69.9832 38.593 69.6651 37.9776C69.347 37.3587 69.188 36.6413 69.188 35.8254C69.188 35.0025 69.347 34.2834 69.6651 33.668C69.9832 33.0491 70.4344 32.5685 71.0187 32.2262C71.6064 31.8805 72.3031 31.7076 73.1087 31.7076C73.9142 31.7076 74.6092 31.8805 75.1935 32.2262C75.7812 32.5685 76.2342 33.0491 76.5522 33.668C76.8703 34.2834 77.0294 35.0025 77.0294 35.8254C77.0294 36.6413 76.8703 37.3587 76.5522 37.9776C76.2342 38.593 75.7812 39.0736 75.1935 39.4194C74.6092 39.7616 73.9142 39.9328 73.1087 39.9328ZM73.119 38.2214C73.4855 38.2214 73.7915 38.1176 74.037 37.9102C74.2825 37.6993 74.4674 37.4123 74.5919 37.0493C74.7198 36.6863 74.7838 36.2731 74.7838 35.8098C74.7838 35.3465 74.7198 34.9334 74.5919 34.5703C74.4674 34.2073 74.2825 33.9204 74.037 33.7094C73.7915 33.4985 73.4855 33.3931 73.119 33.3931C72.7491 33.3931 72.4379 33.4985 72.1855 33.7094C71.9366 33.9204 71.7482 34.2073 71.6202 34.5703C71.4958 34.9334 71.4335 35.3465 71.4335 35.8098C71.4335 36.2731 71.4958 36.6863 71.6202 37.0493C71.7482 37.4123 71.9366 37.6993 72.1855 37.9102C72.4379 38.1176 72.7491 38.2214 73.119 38.2214ZM80.6078 31.8113H78.4659V39.7772H80.6752V35.2705C80.6752 34.9455 80.7478 34.6585 80.893 34.4096C81.0417 34.1606 81.2422 33.967 81.4946 33.8287C81.7505 33.687 82.0409 33.6161 82.3659 33.6161C82.518 33.6161 82.6857 33.6282 82.8689 33.6524C83.0522 33.6766 83.1957 33.7043 83.2994 33.7354V31.775C83.2026 31.7508 83.0902 31.7318 82.9623 31.718C82.8344 31.7042 82.7151 31.6972 82.6044 31.6972C82.1584 31.6972 81.7643 31.8252 81.422 32.081C81.0797 32.3334 80.836 32.7068 80.6908 33.2012H80.6078V31.8113Z" fill="#F2F2F2"/>
</svg>
