<svg width="30" height="31" viewBox="0 0 30 31" fill="none" xmlns="http://www.w3.org/2000/svg">
<circle cx="15" cy="15.5" r="15" fill="#2C2A4A"/>
<path d="M17.88 15.5C17.88 16.0696 17.7111 16.6264 17.3946 17.1C17.0782 17.5737 16.6284 17.9428 16.1021 18.1608C15.5759 18.3788 14.9968 18.4358 14.4381 18.3247C13.8795 18.2135 13.3663 17.9392 12.9635 17.5365C12.5608 17.1337 12.2865 16.6205 12.1753 16.0619C12.0642 15.5032 12.1212 14.9241 12.3392 14.3979C12.5572 13.8716 12.9263 13.4218 13.4 13.1054C13.8736 12.7889 14.4304 12.62 15 12.62C15.7631 12.6224 16.4943 12.9266 17.0338 13.4662C17.5734 14.0057 17.8776 14.7369 17.88 15.5ZM24 11.54V19.46C24 20.7967 23.469 22.0786 22.5238 23.0238C21.5786 23.969 20.2967 24.5 18.96 24.5H11.04C9.70331 24.5 8.42137 23.969 7.47618 23.0238C6.531 22.0786 6 20.7967 6 19.46V11.54C6 10.2033 6.531 8.92137 7.47618 7.97618C8.42137 7.031 9.70331 6.5 11.04 6.5H18.96C20.2967 6.5 21.5786 7.031 22.5238 7.97618C23.469 8.92137 24 10.2033 24 11.54ZM19.32 15.5C19.32 14.6456 19.0666 13.8104 18.5919 13.0999C18.1173 12.3895 17.4426 11.8358 16.6532 11.5088C15.8638 11.1819 14.9952 11.0963 14.1572 11.263C13.3192 11.4297 12.5495 11.8411 11.9453 12.4453C11.3411 13.0495 10.9297 13.8192 10.763 14.6572C10.5963 15.4952 10.6819 16.3638 11.0088 17.1532C11.3358 17.9426 11.8895 18.6173 12.5999 19.0919C13.3104 19.5666 14.1456 19.82 15 19.82C16.1457 19.82 17.2445 19.3649 18.0547 18.5547C18.8649 17.7445 19.32 16.6457 19.32 15.5ZM20.76 10.82C20.76 10.6064 20.6967 10.3976 20.578 10.22C20.4593 10.0424 20.2906 9.90395 20.0933 9.82221C19.896 9.74047 19.6788 9.71908 19.4693 9.76075C19.2598 9.80242 19.0674 9.90528 18.9163 10.0563C18.7653 10.2074 18.6624 10.3998 18.6208 10.6093C18.5791 10.8188 18.6005 11.036 18.6822 11.2333C18.764 11.4306 18.9024 11.5993 19.08 11.718C19.2576 11.8367 19.4664 11.9 19.68 11.9C19.9664 11.9 20.2411 11.7862 20.4437 11.5837C20.6462 11.3811 20.76 11.1064 20.76 10.82Z" fill="#F9F9F9"/>
</svg>
