<svg width="30" height="30" viewBox="0 0 30 30" fill="none" xmlns="http://www.w3.org/2000/svg">
<circle cx="15" cy="15" r="15" fill="#F9F9F9"/>
<path d="M25.5 9.44118C24.7823 9.78088 24.0086 10.0041 23.207 10.1109C24.0272 9.59647 24.6611 8.78118 24.9594 7.80088C24.1857 8.28618 23.3282 8.62588 22.424 8.82C21.6876 7.98529 20.653 7.5 19.4785 7.5C17.288 7.5 15.4983 9.36353 15.4983 11.6638C15.4983 11.9938 15.5356 12.3141 15.6009 12.615C12.2825 12.4403 9.32768 10.7806 7.3609 8.26676C7.01601 8.87824 6.82027 9.59647 6.82027 10.3535C6.82027 11.7997 7.51936 13.0809 8.60062 13.8088C7.93881 13.8088 7.32361 13.6147 6.78298 13.3235V13.3526C6.78298 15.3715 8.16252 17.0603 9.98948 17.4388C9.40292 17.606 8.78713 17.6292 8.19049 17.5068C8.44366 18.3342 8.93948 19.0582 9.60826 19.577C10.277 20.0958 11.0851 20.3833 11.919 20.3991C10.5055 21.5642 8.75349 22.194 6.95076 22.185C6.63384 22.185 6.31692 22.1656 6 22.1268C7.77103 23.3109 9.87763 24 12.1334 24C19.4785 24 23.5146 17.6524 23.5146 12.1491C23.5146 11.9647 23.5146 11.79 23.5053 11.6056C24.2882 11.0232 24.9594 10.2856 25.5 9.44118Z" fill="#3E383F"/>
</svg>
