<svg width="27" height="27" viewBox="0 0 27 27" fill="none" xmlns="http://www.w3.org/2000/svg">
<path d="M22.8224 21.4135L26.7199 25.309C26.9017 25.4972 27.0022 25.7492 27 26.0108C26.9977 26.2725 26.8927 26.5227 26.7077 26.7077C26.5227 26.8927 26.2725 26.9977 26.0108 27C25.7492 27.0022 25.4972 26.9017 25.309 26.7199L21.4115 22.8224C18.8645 25.0045 15.5714 26.1154 12.2231 25.9218C8.87485 25.7283 5.73166 24.2454 3.45313 21.7843C1.1746 19.3233 -0.0621424 16.0753 0.00240528 12.7221C0.066953 9.36881 1.42778 6.17088 3.79933 3.79933C6.17088 1.42778 9.36881 0.066953 12.7221 0.00240528C16.0753 -0.0621424 19.3233 1.1746 21.7843 3.45313C24.2454 5.73166 25.7283 8.87485 25.9218 12.2231C26.1154 15.5714 25.0045 18.8645 22.8224 21.4115V21.4135ZM12.9719 23.9479C15.8829 23.9479 18.6747 22.7915 20.7331 20.7331C22.7915 18.6747 23.9479 15.8829 23.9479 12.9719C23.9479 10.0608 22.7915 7.26904 20.7331 5.21063C18.6747 3.15221 15.8829 1.99581 12.9719 1.99581C10.0608 1.99581 7.26904 3.15221 5.21063 5.21063C3.15221 7.26904 1.99581 10.0608 1.99581 12.9719C1.99581 15.8829 3.15221 18.6747 5.21063 20.7331C7.26904 22.7915 10.0608 23.9479 12.9719 23.9479Z" fill="white"/>
</svg>
