<svg width="16" height="17" viewBox="0 0 16 17" fill="none" xmlns="http://www.w3.org/2000/svg">
<path d="M15.5593 0.645173C15.6285 0.714505 15.6758 0.802647 15.6954 0.898651C15.7149 0.994654 15.7058 1.09429 15.6693 1.18517L9.85025 15.7322C9.79897 15.8603 9.71334 15.9718 9.60279 16.0543C9.49223 16.1369 9.36103 16.1874 9.22364 16.2002C9.08624 16.213 8.94797 16.1877 8.82405 16.127C8.70012 16.0663 8.59535 15.9726 8.52125 15.8562L5.34325 10.8612L0.348254 7.68317C0.231572 7.60916 0.137606 7.50434 0.0767238 7.3803C0.0158421 7.25626 -0.00958824 7.11781 0.0032389 6.98023C0.016066 6.84264 0.066652 6.71128 0.149415 6.60063C0.232178 6.48998 0.3439 6.40434 0.472254 6.35317L15.0193 0.536173C15.1101 0.499585 15.2098 0.490506 15.3058 0.510062C15.4018 0.529618 15.4899 0.576948 15.5593 0.646173V0.645173ZM6.34125 10.5692L9.10225 14.9072L13.8353 3.07517L6.34125 10.5692ZM13.1283 2.36817L1.29625 7.10117L5.63525 9.86117L13.1283 2.36817Z" fill="white"/>
</svg>
