<svg width="146" height="37" viewBox="0 0 146 37" fill="none" xmlns="http://www.w3.org/2000/svg">
<path fill-rule="evenodd" clip-rule="evenodd" d="M79.5828 9.63408C79.5828 11.2323 79.2799 12.592 78.674 13.7131C78.0728 14.8343 77.2523 15.6906 76.2122 16.2822C75.1769 16.869 74.0129 17.1624 72.72 17.1624C71.4175 17.1624 70.2487 16.8666 69.2134 16.2751C68.1781 15.6835 67.3599 14.8271 66.7588 13.706C66.1577 12.5848 65.8571 11.2275 65.8571 9.63408C65.8571 8.03585 66.1577 6.67617 66.7588 5.55502C67.3599 4.43388 68.1781 3.5799 69.2134 2.99309C70.2487 2.4015 71.4175 2.10571 72.72 2.10571C74.0129 2.10571 75.1769 2.4015 76.2122 2.99309C77.2523 3.5799 78.0728 4.43388 78.674 5.55502C79.2799 6.67617 79.5828 8.03585 79.5828 9.63408ZM76.4412 9.63408C76.4412 8.59881 76.2862 7.72575 75.9761 7.01489C75.6707 6.30404 75.239 5.76494 74.6808 5.39758C74.1226 5.03023 73.469 4.84655 72.72 4.84655C71.9709 4.84655 71.3173 5.03023 70.7592 5.39758C70.201 5.76494 69.7668 6.30404 69.4567 7.01489C69.1514 7.72575 68.9987 8.59881 68.9987 9.63408C68.9987 10.6693 69.1514 11.5424 69.4567 12.2533C69.7668 12.9641 70.201 13.5032 70.7592 13.8706C71.3173 14.2379 71.9709 14.4216 72.72 14.4216C73.469 14.4216 74.1226 14.2379 74.6808 13.8706C75.239 13.5032 75.6707 12.9641 75.9761 12.2533C76.2862 11.5424 76.4412 10.6693 76.4412 9.63408ZM47.6946 16.9621V2.30609H50.7932V14.4073H57.0764V16.9621H47.6946ZM89.4352 2.30609V16.9621H92.5338V11.7666H94.7957L97.5718 16.9621H100.993L97.8829 11.2683C97.9276 11.2489 97.9718 11.229 98.0155 11.2084C98.8122 10.8363 99.4205 10.302 99.8404 9.60545C100.26 8.90414 100.47 8.06686 100.47 7.09361C100.47 6.12513 100.263 5.28308 99.8475 4.56746C99.4372 3.84706 98.8385 3.29126 98.0513 2.90006C97.2689 2.50408 96.3243 2.30609 95.2174 2.30609H89.4352ZM92.5338 9.27627H94.6378C95.2293 9.27627 95.7207 9.19516 96.112 9.03295C96.5032 8.87074 96.7942 8.62743 96.985 8.30302C97.1806 7.9786 97.2784 7.57547 97.2784 7.09361C97.2784 6.60699 97.1806 6.1967 96.985 5.86274C96.7942 5.52878 96.5008 5.27593 96.1048 5.10418C95.7136 4.92766 95.2198 4.8394 94.6235 4.8394H92.5338V9.27627ZM110.217 16.9621V2.30609H120.093V4.86087H113.316V8.35311H119.584V10.9079H113.316V14.4073H120.121V16.9621H110.217ZM133.935 2.30609H130.113V16.9621H133.119V7.38702H133.24L137.033 16.8905H139.08L142.873 7.4228H142.994V16.9621H146V2.30609H142.179L138.142 12.1531H137.971L133.935 2.30609ZM47.092 26.3242V32.3888H48.7739V26.3242H47.092ZM47.2933 25.2937C47.4723 25.4595 47.6869 25.5425 47.9369 25.5425C48.187 25.5425 48.4002 25.4595 48.5765 25.2937C48.7555 25.1253 48.845 24.9239 48.845 24.6896C48.845 24.458 48.7555 24.2593 48.5765 24.0934C48.4002 23.925 48.187 23.8407 47.9369 23.8407C47.6869 23.8407 47.4723 23.925 47.2933 24.0934C47.117 24.2593 47.0288 24.458 47.0288 24.6896C47.0288 24.9239 47.117 25.1253 47.2933 25.2937ZM50.1213 26.3242V34.663H51.8033V31.4175H51.8546C51.9309 31.5859 52.0415 31.7531 52.1862 31.9189C52.331 32.0821 52.5166 32.2177 52.743 32.3256C52.972 32.4335 53.2496 32.4875 53.576 32.4875C54.0367 32.4875 54.4526 32.369 54.8237 32.1321C55.1975 31.8926 55.4923 31.5412 55.7081 31.0779C55.9266 30.612 56.0358 30.0409 56.0358 29.3644C56.0358 28.6695 55.9239 28.0917 55.7002 27.6311C55.4765 27.1678 55.1777 26.8217 54.804 26.5927C54.4302 26.3611 54.0222 26.2452 53.58 26.2452C53.2404 26.2452 52.9562 26.3032 52.7272 26.419C52.5008 26.5322 52.3165 26.6743 52.1744 26.8454C52.0349 27.0138 51.9283 27.1797 51.8546 27.3429H51.7796V26.3242H50.1213ZM51.9178 30.3001C51.8177 30.0316 51.7677 29.7171 51.7677 29.3565C51.7677 28.9959 51.8177 28.6826 51.9178 28.4168C52.0178 28.1509 52.1612 27.9456 52.3481 27.8009C52.5376 27.6561 52.7693 27.5837 53.043 27.5837C53.3194 27.5837 53.5523 27.6587 53.7419 27.8088C53.9314 27.9588 54.0748 28.1667 54.1722 28.4326C54.2696 28.6984 54.3183 29.0064 54.3183 29.3565C54.3183 29.7092 54.2683 30.0211 54.1683 30.2922C54.0709 30.5607 53.9274 30.7713 53.7379 30.9239C53.5484 31.074 53.3168 31.149 53.043 31.149C52.7719 31.149 52.5416 31.0753 52.3521 30.9279C52.1626 30.7779 52.0178 30.5686 51.9178 30.3001ZM62.203 28.0536L60.6632 28.1483C60.6369 28.0167 60.5803 27.8983 60.4934 27.793C60.4066 27.685 60.2921 27.5995 60.1499 27.5363C60.0104 27.4705 59.8433 27.4376 59.6485 27.4376C59.3879 27.4376 59.1681 27.4929 58.9891 27.6035C58.8101 27.7114 58.7206 27.8561 58.7206 28.0378C58.7206 28.1825 58.7785 28.3049 58.8944 28.4049C59.0102 28.505 59.2089 28.5853 59.4906 28.6458L60.5882 28.8669C61.1778 28.988 61.6174 29.1828 61.9069 29.4512C62.1964 29.7197 62.3412 30.0724 62.3412 30.5094C62.3412 30.9068 62.2241 31.2556 61.9898 31.5557C61.7582 31.8557 61.4397 32.09 61.0343 32.2585C60.6316 32.4243 60.167 32.5072 59.6406 32.5072C58.8378 32.5072 58.1982 32.3401 57.7217 32.0058C57.2479 31.6689 56.9702 31.2109 56.8886 30.6318L58.543 30.5449C58.593 30.7897 58.7141 30.9766 58.9062 31.1056C59.0984 31.2319 59.3445 31.2951 59.6445 31.2951C59.9393 31.2951 60.1762 31.2385 60.3552 31.1253C60.5368 31.0095 60.629 30.8608 60.6316 30.6792C60.629 30.5265 60.5645 30.4015 60.4381 30.3041C60.3118 30.204 60.117 30.1277 59.8538 30.0751L58.8036 29.8658C58.2113 29.7474 57.7704 29.5421 57.4809 29.2499C57.194 28.9577 57.0505 28.5853 57.0505 28.1325C57.0505 27.743 57.1558 27.4074 57.3664 27.1257C57.5796 26.8441 57.8783 26.6269 58.2626 26.4742C58.6496 26.3216 59.1023 26.2452 59.6208 26.2452C60.3868 26.2452 60.9896 26.4071 61.4292 26.7309C61.8714 27.0546 62.1293 27.4955 62.203 28.0536ZM67.2894 26.3242V29.8066C67.292 30.0777 67.2381 30.3054 67.1275 30.4896C67.0196 30.6739 66.8774 30.8134 66.7011 30.9082C66.5247 31.0003 66.3352 31.0463 66.1325 31.0463C65.814 31.0463 65.56 30.9424 65.3705 30.7344C65.181 30.5265 65.0849 30.2435 65.0823 29.8856V26.3242H63.4003V30.1856C63.403 30.6594 63.4898 31.0661 63.6609 31.4056C63.8346 31.7452 64.0755 32.0071 64.3835 32.1913C64.6914 32.3756 65.0481 32.4677 65.4534 32.4677C65.9088 32.4677 66.2944 32.3598 66.6103 32.144C66.9288 31.9281 67.1565 31.6425 67.2933 31.2872H67.3565V32.3888H68.9714V26.3242H67.2894ZM70.3167 26.3242H71.9197V27.3942H71.9908C72.1171 27.0388 72.3277 26.7585 72.6225 26.5532C72.9173 26.3479 73.27 26.2452 73.6807 26.2452C74.0965 26.2452 74.4506 26.3492 74.7427 26.5572C75.0349 26.7625 75.2297 27.0415 75.3271 27.3942H75.3903C75.514 27.0467 75.7377 26.769 76.0615 26.5611C76.3879 26.3505 76.7735 26.2452 77.2183 26.2452C77.7842 26.2452 78.2435 26.4255 78.5963 26.7862C78.9516 27.1441 79.1293 27.6521 79.1293 28.3102V32.3888H77.4513V28.6418C77.4513 28.3049 77.3618 28.0522 77.1828 27.8838C77.0038 27.7153 76.7801 27.6311 76.5116 27.6311C76.2062 27.6311 75.968 27.7285 75.7969 27.9233C75.6258 28.1154 75.5403 28.3694 75.5403 28.6853V32.3888H73.9097V28.6063C73.9097 28.3089 73.8241 28.072 73.653 27.8956C73.4846 27.7193 73.2621 27.6311 72.9858 27.6311C72.7989 27.6311 72.6304 27.6785 72.4804 27.7732C72.333 27.8654 72.2158 27.9956 72.129 28.1641C72.0421 28.3299 71.9987 28.5247 71.9987 28.7484V32.3888H70.3167V26.3242ZM84.0143 32.1321C84.3881 32.369 84.8052 32.4875 85.2659 32.4875C85.5923 32.4875 85.8687 32.4335 86.095 32.3256C86.324 32.2177 86.5096 32.0821 86.6517 31.9189C86.7965 31.7531 86.9084 31.5859 86.9873 31.4175H87.0584V32.3888H88.7167V24.3027H87.0387V27.3429H86.9873C86.9136 27.1797 86.8057 27.0138 86.6636 26.8454C86.5241 26.6743 86.3398 26.5322 86.1108 26.419C85.8844 26.3032 85.6015 26.2452 85.2619 26.2452C84.8171 26.2452 84.4078 26.3611 84.034 26.5927C83.6629 26.8217 83.3654 27.1678 83.1417 27.6311C82.918 28.0917 82.8061 28.6695 82.8061 29.3644C82.8061 30.0409 82.914 30.612 83.1299 31.0779C83.3483 31.5412 83.6431 31.8926 84.0143 32.1321ZM86.4859 30.9279C86.299 31.0753 86.07 31.149 85.7989 31.149C85.5225 31.149 85.2896 31.074 85.1001 30.9239C84.9132 30.7713 84.7697 30.5607 84.6697 30.2922C84.5723 30.0211 84.5236 29.7092 84.5236 29.3565C84.5236 29.0064 84.5723 28.6984 84.6697 28.4326C84.7671 28.1667 84.9105 27.9588 85.1001 27.8088C85.2896 27.6587 85.5225 27.5837 85.7989 27.5837C86.07 27.5837 86.3003 27.6561 86.4898 27.8009C86.6794 27.9456 86.8241 28.1509 86.9242 28.4168C87.0242 28.6826 87.0742 28.9959 87.0742 29.3565C87.0742 29.7171 87.0229 30.0316 86.9202 30.3001C86.8202 30.5686 86.6754 30.7779 86.4859 30.9279ZM92.8397 32.5072C92.2264 32.5072 91.696 32.3769 91.2485 32.1163C90.8037 31.8531 90.4602 31.4872 90.218 31.0187C89.9758 30.5475 89.8548 30.0014 89.8548 29.3802C89.8548 28.7537 89.9758 28.2062 90.218 27.7377C90.4602 27.2665 90.8037 26.9007 91.2485 26.6401C91.696 26.3769 92.2264 26.2452 92.8397 26.2452C93.453 26.2452 93.982 26.3769 94.4269 26.6401C94.8743 26.9007 95.2192 27.2665 95.4613 27.7377C95.7035 28.2062 95.8246 28.7537 95.8246 29.3802C95.8246 30.0014 95.7035 30.5475 95.4613 31.0187C95.2192 31.4872 94.8743 31.8531 94.4269 32.1163C93.982 32.3769 93.453 32.5072 92.8397 32.5072ZM92.8476 31.2043C93.1266 31.2043 93.3595 31.1253 93.5464 30.9674C93.7333 30.8068 93.8741 30.5883 93.9689 30.312C94.0663 30.0356 94.115 29.721 94.115 29.3683C94.115 29.0156 94.0663 28.7011 93.9689 28.4247C93.8741 28.1483 93.7333 27.9298 93.5464 27.7693C93.3595 27.6087 93.1266 27.5284 92.8476 27.5284C92.5659 27.5284 92.329 27.6087 92.1369 27.7693C91.9473 27.9298 91.8039 28.1483 91.7065 28.4247C91.6117 28.7011 91.5644 29.0156 91.5644 29.3683C91.5644 29.721 91.6117 30.0356 91.7065 30.312C91.8039 30.5883 91.9473 30.8068 92.1369 30.9674C92.329 31.1253 92.5659 31.2043 92.8476 31.2043ZM98.6002 32.3888V24.3027H96.9182V32.3888H98.6002ZM102.688 32.5072C102.074 32.5072 101.544 32.3769 101.096 32.1163C100.652 31.8531 100.308 31.4872 100.066 31.0187C99.8238 30.5475 99.7028 30.0014 99.7028 29.3802C99.7028 28.7537 99.8238 28.2062 100.066 27.7377C100.308 27.2665 100.652 26.9007 101.096 26.6401C101.544 26.3769 102.074 26.2452 102.688 26.2452C103.301 26.2452 103.83 26.3769 104.275 26.6401C104.722 26.9007 105.067 27.2665 105.309 27.7377C105.551 28.2062 105.673 28.7537 105.673 29.3802C105.673 30.0014 105.551 30.5475 105.309 31.0187C105.067 31.4872 104.722 31.8531 104.275 32.1163C103.83 32.3769 103.301 32.5072 102.688 32.5072ZM102.696 31.2043C102.975 31.2043 103.208 31.1253 103.394 30.9674C103.581 30.8068 103.722 30.5883 103.817 30.312C103.914 30.0356 103.963 29.721 103.963 29.3683C103.963 29.0156 103.914 28.7011 103.817 28.4247C103.722 28.1483 103.581 27.9298 103.394 27.7693C103.208 27.6087 102.975 27.5284 102.696 27.5284C102.414 27.5284 102.177 27.6087 101.985 27.7693C101.795 27.9298 101.652 28.1483 101.554 28.4247C101.46 28.7011 101.412 29.0156 101.412 29.3683C101.412 29.721 101.46 30.0356 101.554 30.312C101.652 30.5883 101.795 30.8068 101.985 30.9674C102.177 31.1253 102.414 31.2043 102.696 31.2043ZM108.397 26.3242H106.766V32.3888H108.448V28.9577C108.448 28.7103 108.503 28.4918 108.614 28.3023C108.727 28.1128 108.88 27.9654 109.072 27.8601C109.267 27.7522 109.488 27.6982 109.735 27.6982C109.851 27.6982 109.979 27.7074 110.118 27.7258C110.258 27.7443 110.367 27.7653 110.446 27.789V26.2966C110.372 26.2781 110.287 26.2637 110.189 26.2531C110.092 26.2426 110.001 26.2373 109.917 26.2373C109.577 26.2373 109.277 26.3347 109.017 26.5295C108.756 26.7217 108.571 27.0059 108.46 27.3823H108.397V26.3242Z" fill="#2C2A4A"/>
<path d="M3.89957 36.5C2.82719 36.5 1.90884 36.116 1.14452 35.3481C0.381508 34.5788 0 33.6546 0 32.5753V12.9516C0 11.8723 0.381508 10.948 1.14452 10.1788C1.90884 9.41085 2.82719 9.02688 3.89957 9.02688H11.6987V6.7211C11.6987 6.45945 11.7234 6.20631 11.7728 5.96167C11.8209 5.71572 11.8937 5.47827 11.9912 5.24933C12.0887 5.02038 12.2024 4.79929 12.3324 4.58605C12.4624 4.37411 12.6249 4.17003 12.8198 3.97379L16.1832 0.58871C16.5732 0.196236 17.0281 0 17.5481 0C18.068 0 18.523 0.196236 18.9129 0.58871L22.2763 3.97379C22.6338 4.33356 22.91 4.75023 23.105 5.22382C23.2999 5.69871 23.3974 6.1978 23.3974 6.7211V16.8763H31.1966C32.269 16.8763 33.1873 17.2603 33.9516 18.0283C34.7146 18.7975 35.0962 19.7218 35.0962 20.8011V32.5753C35.0962 33.6546 34.7146 34.5788 33.9516 35.3481C33.1873 36.116 32.269 36.5 31.1966 36.5H3.89957ZM3.89957 32.5753H7.79915V28.6505H3.89957V32.5753ZM3.89957 24.7258H7.79915V20.8011H3.89957V24.7258ZM3.89957 16.8763H7.79915V12.9516H3.89957V16.8763ZM15.5983 32.5753H19.4979V28.6505H15.5983V32.5753ZM15.5983 24.7258H19.4979V20.8011H15.5983V24.7258ZM15.5983 16.8763H19.4979V12.9516H15.5983V16.8763ZM15.5983 9.02688H19.4979V5.10215H15.5983V9.02688ZM27.297 32.5753H31.1966V28.6505H27.297V32.5753ZM27.297 24.7258H31.1966V20.8011H27.297V24.7258Z" fill="#2C2A4A"/>
</svg>
