<svg width="16" height="20" viewBox="0 0 16 20" fill="none" xmlns="http://www.w3.org/2000/svg">
<path d="M5.08395 0.0200377C6.13479 -0.122683 7.01788 0.51551 7.43597 1.34501L8.46438 3.38612C9.03492 4.51877 8.70707 5.84779 7.84234 6.68387C7.33145 7.17732 6.81801 7.74111 6.52025 8.23861C6.50052 8.27407 6.49437 8.31541 6.50291 8.35501C6.77824 9.83587 7.78931 11.299 8.69127 12.3482C8.73663 12.3982 8.79583 12.4338 8.86148 12.4507C8.92713 12.4675 8.99632 12.4647 9.06041 12.4428L11.0871 11.8142C11.6331 11.6448 12.2193 11.6535 12.76 11.8389C13.3006 12.0244 13.7672 12.3768 14.0913 12.8446L15.5582 14.9622C15.9559 15.5371 16.1573 16.3165 15.8524 17.066C15.5801 17.7356 15.0534 18.7012 14.0954 19.3435C13.1011 20.0095 11.7393 20.2626 9.95727 19.6562C7.96623 18.9781 6.08533 17.2776 4.52564 15.1029C2.95678 12.9145 1.66529 10.181 0.882128 7.33067C0.14231 4.63922 0.588954 2.82738 1.6403 1.66082C2.65443 0.535249 4.10755 0.153142 5.08395 0.0200377ZM6.29591 1.91083C6.0629 1.44876 5.64735 1.22051 5.2573 1.27365C4.39002 1.39208 3.304 1.71244 2.5907 2.50449C1.91461 3.25503 1.44655 4.57697 2.11142 6.99765C2.85838 9.7144 4.08818 12.3107 5.56425 14.369C7.04949 16.4405 8.73715 17.9031 10.3708 18.4593C11.8264 18.9548 12.7621 18.7098 13.3821 18.2948C14.0377 17.855 14.441 17.1561 14.6705 16.5923C14.7755 16.3342 14.7301 16.0002 14.5078 15.6793L13.0409 13.5618C12.8712 13.3167 12.6269 13.1321 12.3437 13.0349C12.0605 12.9377 11.7535 12.9331 11.4675 13.0218L9.44077 13.6503C8.83505 13.8381 8.15284 13.6706 7.72201 13.1696C6.78334 12.0779 5.58719 10.4037 5.24915 8.58428C5.18453 8.24329 5.24686 7.89061 5.42454 7.59181C5.81102 6.94704 6.42286 6.28962 6.95262 5.77744C7.47013 5.27741 7.61697 4.53345 7.32431 3.95194L6.29591 1.91083Z" fill="#FF5A3E"/>
</svg>
