<svg width="30" height="31" viewBox="0 0 30 31" fill="none" xmlns="http://www.w3.org/2000/svg">
<circle cx="15" cy="15.5" r="15" fill="#2C2A4A"/>
<path d="M25.5 9.94118C24.7823 10.2809 24.0086 10.5041 23.207 10.6109C24.0272 10.0965 24.6611 9.28118 24.9594 8.30088C24.1857 8.78618 23.3282 9.12588 22.424 9.32C21.6876 8.48529 20.653 8 19.4785 8C17.288 8 15.4983 9.86353 15.4983 12.1638C15.4983 12.4938 15.5356 12.8141 15.6009 13.115C12.2825 12.9403 9.32768 11.2806 7.3609 8.76676C7.01601 9.37824 6.82027 10.0965 6.82027 10.8535C6.82027 12.2997 7.51936 13.5809 8.60062 14.3088C7.93881 14.3088 7.32361 14.1147 6.78298 13.8235V13.8526C6.78298 15.8715 8.16252 17.5603 9.98948 17.9388C9.40292 18.106 8.78713 18.1292 8.19049 18.0068C8.44366 18.8342 8.93948 19.5582 9.60826 20.077C10.277 20.5958 11.0851 20.8833 11.919 20.8991C10.5055 22.0642 8.75349 22.694 6.95076 22.685C6.63384 22.685 6.31692 22.6656 6 22.6268C7.77103 23.8109 9.87763 24.5 12.1334 24.5C19.4785 24.5 23.5146 18.1524 23.5146 12.6491C23.5146 12.4647 23.5146 12.29 23.5053 12.1056C24.2882 11.5232 24.9594 10.7856 25.5 9.94118Z" fill="#F9F9F9"/>
</svg>
