<svg width="74" height="26" viewBox="0 0 74 26" fill="none" xmlns="http://www.w3.org/2000/svg">
<path fill-rule="evenodd" clip-rule="evenodd" d="M24.2313 6.48674C24.2313 7.67637 24.0059 8.68845 23.5549 9.52296C23.1074 10.3575 22.4966 10.9949 21.7225 11.4352C20.9519 11.872 20.0854 12.0904 19.123 12.0904C18.1536 12.0904 17.2835 11.8703 16.513 11.4299C15.7424 10.9896 15.1333 10.3522 14.6859 9.51764C14.2384 8.68312 14.0147 7.67282 14.0147 6.48674C14.0147 5.29711 14.2384 4.28504 14.6859 3.45053C15.1333 2.61601 15.7424 1.98036 16.513 1.54357C17.2835 1.10323 18.1536 0.883057 19.123 0.883057C20.0854 0.883057 20.9519 1.10323 21.7225 1.54357C22.4966 1.98036 23.1074 2.61601 23.5549 3.45053C24.0059 4.28504 24.2313 5.29711 24.2313 6.48674ZM21.8929 6.48674C21.8929 5.71615 21.7775 5.06629 21.5467 4.53717C21.3194 4.00805 20.998 3.60678 20.5826 3.33334C20.1671 3.0599 19.6806 2.92318 19.123 2.92318C18.5655 2.92318 18.079 3.0599 17.6635 3.33334C17.248 3.60678 16.9249 4.00805 16.6941 4.53717C16.4668 5.06629 16.3532 5.71615 16.3532 6.48674C16.3532 7.25734 16.4668 7.9072 16.6941 8.43632C16.9249 8.96544 17.248 9.36671 17.6635 9.64015C18.079 9.91359 18.5655 10.0503 19.123 10.0503C19.6806 10.0503 20.1671 9.91359 20.5826 9.64015C20.998 9.36671 21.3194 8.96544 21.5467 8.43632C21.7775 7.9072 21.8929 7.25734 21.8929 6.48674ZM0.495545 11.9413V1.0322H2.80201V10.0397H7.47886V11.9413H0.495545ZM31.5649 1.0322V11.9413H33.8714V8.0741H35.555L37.6214 11.9413H40.1675L37.8529 7.70319C37.8862 7.68875 37.9191 7.6739 37.9516 7.65862C38.5447 7.38163 38.9974 6.9839 39.3099 6.46544C39.6224 5.94342 39.7787 5.3202 39.7787 4.59577C39.7787 3.87489 39.6242 3.24811 39.3153 2.71544C39.0099 2.17922 38.5642 1.76551 37.9782 1.47432C37.3959 1.17958 36.6927 1.0322 35.8689 1.0322H31.5649ZM33.8714 6.22041H35.4374C35.8777 6.22041 36.2435 6.16004 36.5347 6.0393C36.8259 5.91856 37.0425 5.73745 37.1846 5.49598C37.3302 5.2545 37.403 4.95443 37.403 4.59577C37.403 4.23355 37.3302 3.92815 37.1846 3.67957C37.0425 3.43099 36.8241 3.24278 36.5294 3.11494C36.2382 2.98355 35.8706 2.91786 35.4268 2.91786H33.8714V6.22041ZM47.0336 11.9413V1.0322H54.3845V2.93384H49.3401V5.53327H54.0063V7.4349H49.3401V10.0397H54.4058V11.9413H47.0336ZM64.6877 1.0322H61.8432V11.9413H64.0804V4.81416H64.171L66.9941 11.888H68.5176L71.3407 4.84079H71.4313V11.9413H73.6685V1.0322H70.8241L67.8198 8.36174H67.6919L64.6877 1.0322ZM0.047022 18.9099V23.424H1.29898V18.9099H0.047022ZM0.196904 18.1429C0.330133 18.2663 0.489812 18.328 0.675941 18.328C0.862069 18.328 1.02077 18.2663 1.15204 18.1429C1.28527 18.0175 1.35188 17.8676 1.35188 17.6932C1.35188 17.5208 1.28527 17.3729 1.15204 17.2495C1.02077 17.1241 0.862069 17.0614 0.675941 17.0614C0.489812 17.0614 0.330133 17.1241 0.196904 17.2495C0.0656348 17.3729 0 17.5208 0 17.6932C0 17.8676 0.0656348 18.0175 0.196904 18.1429ZM2.30187 18.9099V25.1168H3.55383V22.7011H3.59204C3.64885 22.8265 3.73114 22.9509 3.8389 23.0743C3.94666 23.1958 4.08479 23.2967 4.25328 23.377C4.42374 23.4573 4.63044 23.4975 4.87339 23.4975C5.21625 23.4975 5.52582 23.4093 5.80207 23.233C6.08028 23.0547 6.29972 22.7932 6.46038 22.4483C6.62299 22.1015 6.7043 21.6764 6.7043 21.1729C6.7043 20.6556 6.62103 20.2256 6.4545 19.8827C6.28796 19.5379 6.06559 19.2802 5.78737 19.1098C5.50916 18.9374 5.20548 18.8512 4.87632 18.8512C4.62358 18.8512 4.41198 18.8943 4.24153 18.9805C4.07303 19.0647 3.93589 19.1705 3.83009 19.2979C3.72625 19.4233 3.6469 19.5467 3.59204 19.6682H3.5362V18.9099H2.30187ZM3.63906 21.8694C3.56461 21.6695 3.52738 21.4354 3.52738 21.167C3.52738 20.8986 3.56461 20.6654 3.63906 20.4675C3.71351 20.2696 3.82029 20.1168 3.9594 20.0091C4.10046 19.9013 4.27288 19.8474 4.47664 19.8474C4.68236 19.8474 4.85575 19.9033 4.99682 20.0149C5.13788 20.1266 5.24466 20.2814 5.31715 20.4793C5.38965 20.6772 5.42589 20.9064 5.42589 21.167C5.42589 21.4295 5.38867 21.6617 5.31422 21.8635C5.24172 22.0633 5.13494 22.2201 4.99388 22.3337C4.85281 22.4454 4.6804 22.5012 4.47664 22.5012C4.27484 22.5012 4.1034 22.4464 3.96233 22.3367C3.82127 22.225 3.71351 22.0692 3.63906 21.8694ZM11.2948 20.1972L10.1487 20.2677C10.1291 20.1697 10.0869 20.0816 10.0223 20.0032C9.95763 19.9229 9.87241 19.8592 9.76661 19.8122C9.66277 19.7632 9.53836 19.7387 9.39337 19.7387C9.1994 19.7387 9.03581 19.7798 8.90258 19.8621C8.76935 19.9425 8.70274 20.0502 8.70274 20.1854C8.70274 20.2932 8.74584 20.3843 8.83205 20.4587C8.91825 20.5332 9.06618 20.5929 9.27582 20.638L10.0928 20.8026C10.5317 20.8927 10.8589 21.0377 11.0744 21.2375C11.2899 21.4374 11.3977 21.6999 11.3977 22.0251C11.3977 22.321 11.3105 22.5806 11.1361 22.8039C10.9637 23.0273 10.7266 23.2017 10.4249 23.3271C10.1252 23.4505 9.77934 23.5122 9.38749 23.5122C8.78992 23.5122 8.31382 23.3878 7.9592 23.139C7.60654 22.8882 7.39984 22.5473 7.3391 22.1162L8.57049 22.0516C8.60771 22.2338 8.69784 22.3729 8.84086 22.4689C8.98389 22.5629 9.16708 22.61 9.39043 22.61C9.60987 22.61 9.7862 22.5678 9.91943 22.4836C10.0546 22.3974 10.1232 22.2867 10.1252 22.1515C10.1232 22.0379 10.0752 21.9448 9.98115 21.8723C9.8871 21.7979 9.74212 21.741 9.54619 21.7019L8.76445 21.5461C8.32362 21.4579 7.99545 21.3051 7.77993 21.0876C7.56637 20.8702 7.45959 20.5929 7.45959 20.2559C7.45959 19.966 7.53796 19.7162 7.6947 19.5065C7.8534 19.2969 8.07578 19.1352 8.36183 19.0216C8.64984 18.908 8.98683 18.8512 9.3728 18.8512C9.94294 18.8512 10.3916 18.9716 10.7188 19.2126C11.048 19.4536 11.24 19.7818 11.2948 20.1972ZM15.0808 18.9099V21.502C15.0828 21.7038 15.0426 21.8733 14.9603 22.0104C14.88 22.1476 14.7742 22.2514 14.6429 22.322C14.5117 22.3905 14.3706 22.4248 14.2197 22.4248C13.9827 22.4248 13.7936 22.3474 13.6525 22.1926C13.5115 22.0379 13.44 21.8272 13.438 21.5608V18.9099H12.186V21.7841C12.188 22.1368 12.2526 22.4395 12.38 22.6923C12.5093 22.945 12.6886 23.1399 12.9178 23.2771C13.147 23.4142 13.4125 23.4828 13.7142 23.4828C14.0532 23.4828 14.3402 23.4025 14.5753 23.2418C14.8124 23.0812 14.9819 22.8686 15.0838 22.6041H15.1308V23.424H16.3328V18.9099H15.0808ZM17.3342 18.9099H18.5274V19.7064H18.5803C18.6743 19.4419 18.8311 19.2332 19.0505 19.0804C19.2699 18.9276 19.5325 18.8512 19.8381 18.8512C20.1477 18.8512 20.4112 18.9285 20.6287 19.0833C20.8462 19.2361 20.9911 19.4438 21.0636 19.7064H21.1107C21.2027 19.4477 21.3693 19.241 21.6103 19.0863C21.8532 18.9295 22.1402 18.8512 22.4714 18.8512C22.8926 18.8512 23.2345 18.9854 23.497 19.2538C23.7615 19.5202 23.8938 19.8984 23.8938 20.3882V23.424H22.6447V20.635C22.6447 20.3843 22.5781 20.1962 22.4449 20.0708C22.3117 19.9454 22.1451 19.8827 21.9453 19.8827C21.718 19.8827 21.5407 19.9552 21.4134 20.1002C21.286 20.2432 21.2223 20.4323 21.2223 20.6674V23.424H20.0086V20.6086C20.0086 20.3872 19.9449 20.2109 19.8176 20.0796C19.6922 19.9483 19.5266 19.8827 19.3209 19.8827C19.1818 19.8827 19.0564 19.918 18.9447 19.9885C18.835 20.0571 18.7478 20.1541 18.6831 20.2794C18.6185 20.4029 18.5862 20.5479 18.5862 20.7144V23.424H17.3342V18.9099ZM27.5299 23.233C27.8081 23.4093 28.1186 23.4975 28.4615 23.4975C28.7045 23.4975 28.9102 23.4573 29.0787 23.377C29.2491 23.2967 29.3873 23.1958 29.4931 23.0743C29.6008 22.9509 29.6841 22.8265 29.7429 22.7011H29.7958V23.424H31.0301V17.4052H29.7811V19.6682H29.7429C29.688 19.5467 29.6077 19.4233 29.5019 19.2979C29.398 19.1705 29.2609 19.0647 29.0904 18.9805C28.9219 18.8943 28.7113 18.8512 28.4586 18.8512C28.1275 18.8512 27.8228 18.9374 27.5446 19.1098C27.2683 19.2802 27.0469 19.5379 26.8804 19.8827C26.7139 20.2256 26.6306 20.6556 26.6306 21.1729C26.6306 21.6764 26.7109 22.1015 26.8716 22.4483C27.0342 22.7932 27.2536 23.0547 27.5299 23.233ZM29.3696 22.3367C29.2305 22.4464 29.0601 22.5012 28.8583 22.5012C28.6525 22.5012 28.4791 22.4454 28.3381 22.3337C28.199 22.2201 28.0922 22.0633 28.0177 21.8635C27.9452 21.6617 27.909 21.4295 27.909 21.167C27.909 20.9064 27.9452 20.6772 28.0177 20.4793C28.0902 20.2814 28.197 20.1266 28.3381 20.0149C28.4791 19.9033 28.6525 19.8474 28.8583 19.8474C29.0601 19.8474 29.2315 19.9013 29.3726 20.0091C29.5136 20.1168 29.6214 20.2696 29.6958 20.4675C29.7703 20.6654 29.8075 20.8986 29.8075 21.167C29.8075 21.4354 29.7693 21.6695 29.6929 21.8694C29.6184 22.0692 29.5107 22.225 29.3696 22.3367ZM34.099 23.5122C33.6425 23.5122 33.2477 23.4152 32.9146 23.2213C32.5835 23.0253 32.3278 22.753 32.1476 22.4042C31.9673 22.0535 31.8772 21.647 31.8772 21.1846C31.8772 20.7183 31.9673 20.3108 32.1476 19.962C32.3278 19.6113 32.5835 19.339 32.9146 19.145C33.2477 18.9491 33.6425 18.8512 34.099 18.8512C34.5555 18.8512 34.9493 18.9491 35.2804 19.145C35.6135 19.339 35.8702 19.6113 36.0504 19.962C36.2307 20.3108 36.3208 20.7183 36.3208 21.1846C36.3208 21.647 36.2307 22.0535 36.0504 22.4042C35.8702 22.753 35.6135 23.0253 35.2804 23.2213C34.9493 23.4152 34.5555 23.5122 34.099 23.5122ZM34.1049 22.5424C34.3126 22.5424 34.486 22.4836 34.6251 22.366C34.7642 22.2465 34.869 22.0839 34.9395 21.8782C35.012 21.6725 35.0483 21.4383 35.0483 21.1758C35.0483 20.9133 35.012 20.6791 34.9395 20.4734C34.869 20.2677 34.7642 20.1051 34.6251 19.9856C34.486 19.866 34.3126 19.8063 34.1049 19.8063C33.8952 19.8063 33.7189 19.866 33.5759 19.9856C33.4348 20.1051 33.328 20.2677 33.2555 20.4734C33.185 20.6791 33.1497 20.9133 33.1497 21.1758C33.1497 21.4383 33.185 21.6725 33.2555 21.8782C33.328 22.0839 33.4348 22.2465 33.5759 22.366C33.7189 22.4836 33.8952 22.5424 34.1049 22.5424ZM38.3868 23.424V17.4052H37.1349V23.424H38.3868ZM41.4293 23.5122C40.9728 23.5122 40.578 23.4152 40.2449 23.2213C39.9138 23.0253 39.6581 22.753 39.4779 22.4042C39.2976 22.0535 39.2075 21.647 39.2075 21.1846C39.2075 20.7183 39.2976 20.3108 39.4779 19.962C39.6581 19.6113 39.9138 19.339 40.2449 19.145C40.578 18.9491 40.9728 18.8512 41.4293 18.8512C41.8858 18.8512 42.2796 18.9491 42.6107 19.145C42.9438 19.339 43.2004 19.6113 43.3807 19.962C43.5609 20.3108 43.6511 20.7183 43.6511 21.1846C43.6511 21.647 43.5609 22.0535 43.3807 22.4042C43.2004 22.753 42.9438 23.0253 42.6107 23.2213C42.2796 23.4152 41.8858 23.5122 41.4293 23.5122ZM41.4352 22.5424C41.6428 22.5424 41.8162 22.4836 41.9553 22.366C42.0944 22.2465 42.1993 22.0839 42.2698 21.8782C42.3423 21.6725 42.3785 21.4383 42.3785 21.1758C42.3785 20.9133 42.3423 20.6791 42.2698 20.4734C42.1993 20.2677 42.0944 20.1051 41.9553 19.9856C41.8162 19.866 41.6428 19.8063 41.4352 19.8063C41.2255 19.8063 41.0492 19.866 40.9062 19.9856C40.7651 20.1051 40.6583 20.2677 40.5858 20.4734C40.5153 20.6791 40.48 20.9133 40.48 21.1758C40.48 21.4383 40.5153 21.6725 40.5858 21.8782C40.6583 22.0839 40.7651 22.2465 40.9062 22.366C41.0492 22.4836 41.2255 22.5424 41.4352 22.5424ZM45.6789 18.9099H44.4651V23.424H45.7171V20.8702C45.7171 20.686 45.7582 20.5234 45.8405 20.3823C45.9248 20.2412 46.0384 20.1315 46.1814 20.0532C46.3264 19.9728 46.491 19.9327 46.6752 19.9327C46.7614 19.9327 46.8564 19.9395 46.9602 19.9532C47.0641 19.9669 47.1454 19.9826 47.2042 20.0003V18.8894C47.1493 18.8756 47.0856 18.8649 47.0131 18.857C46.9407 18.8492 46.8731 18.8453 46.8104 18.8453C46.5576 18.8453 46.3343 18.9178 46.1403 19.0628C45.9463 19.2058 45.8082 19.4174 45.7259 19.6975H45.6789V18.9099Z" fill="white"/>
</svg>
